<svg width="28" height="24" viewBox="0 0 28 24" fill="none" xmlns="http://www.w3.org/2000/svg">
<g id="Logo">
<path id="Trazado 514" d="M19.9898 7.51435C20.1717 7.28992 20.2971 7.0178 20.3537 6.72463C20.4103 6.43145 20.3961 6.12728 20.3126 5.84188C20.229 5.55647 20.079 5.29962 19.8772 5.09646C19.6754 4.8933 19.4286 4.75079 19.1612 4.68289L17.2216 4.19024C17.0553 4.14851 16.8999 4.06566 16.7675 3.9481C16.635 3.83053 16.5291 3.68137 16.4579 3.51212L15.4136 1.04771C15.281 0.734862 15.069 0.469965 14.8028 0.284311C14.5367 0.098656 14.2273 0 13.9114 0C13.5954 0 13.2861 0.098656 13.0199 0.284311C12.7537 0.469965 12.5418 0.734862 12.4091 1.04771L11.3649 3.51173C11.2936 3.6811 11.1877 3.83036 11.0552 3.948C10.9227 4.06564 10.7672 4.14852 10.6008 4.19024L8.66156 4.68289C8.39416 4.75083 8.14751 4.89334 7.94574 5.09647C7.74396 5.2996 7.59398 5.55641 7.51046 5.84175C7.42694 6.12709 7.41275 6.43119 7.46928 6.72431C7.5258 7.01743 7.65111 7.28952 7.83293 7.51396L9.2539 9.26759C9.38125 9.42558 9.46927 9.6166 9.50952 9.82236C9.54977 10.0281 9.54092 10.2417 9.48379 10.4426L8.83264 12.7177C8.74117 13.0312 8.73428 13.3669 8.81283 13.6846C8.89138 14.0023 9.05204 14.2886 9.27564 14.5094C9.49842 14.7303 9.77392 14.8779 10.0703 14.9352C10.3667 14.9925 10.672 14.9572 10.9507 14.8333L13.082 13.8756C13.3448 13.7565 13.6266 13.6952 13.9112 13.6952C14.1958 13.6952 14.4776 13.7565 14.7404 13.8756L16.872 14.8333C17.0651 14.9206 17.2721 14.9656 17.4811 14.9659C17.7294 14.9643 17.9738 14.8993 18.1949 14.776C18.416 14.6528 18.6076 14.4747 18.7542 14.2562C18.9009 14.0376 18.9986 13.7846 19.0395 13.5174C19.0804 13.2503 19.0633 12.9764 18.9897 12.7177L18.3382 10.4426C18.2813 10.2416 18.2726 10.028 18.3129 9.82217C18.3532 9.61638 18.4412 9.42531 18.5685 9.2672L19.9898 7.51435ZM17.0997 10.8653L17.7509 13.1396C17.7671 13.1965 17.7681 13.2573 17.7539 13.3149C17.7396 13.3724 17.7106 13.4244 17.6703 13.4646C17.6299 13.5049 17.5799 13.5318 17.5261 13.5422C17.4723 13.5526 17.4169 13.546 17.3663 13.5233L15.2347 12.5657C14.8152 12.3757 14.3654 12.2779 13.9112 12.2779C13.457 12.2779 13.0072 12.3757 12.5877 12.5657L10.4553 13.5237C10.4048 13.5463 10.3494 13.5526 10.2957 13.5421C10.2419 13.5315 10.1921 13.5045 10.1519 13.4642C10.1117 13.4238 10.0828 13.3719 10.0687 13.3143C10.0546 13.2568 10.0558 13.196 10.0722 13.1392L10.7234 10.8649C10.8463 10.4311 10.8651 9.97016 10.778 9.52616C10.691 9.08216 10.501 8.66994 10.2262 8.32895L8.80555 6.57571C8.77254 6.53497 8.74979 6.48557 8.73952 6.43235C8.72926 6.37914 8.73183 6.32392 8.74699 6.27211C8.76215 6.22031 8.78937 6.17368 8.826 6.13679C8.86262 6.09991 8.9074 6.07403 8.95595 6.06168L10.8951 5.56942C11.2542 5.47949 11.5896 5.30075 11.8753 5.04699C12.1611 4.79323 12.3896 4.47124 12.5431 4.10586L13.5874 1.64184C13.6158 1.57418 13.6615 1.51684 13.7189 1.47664C13.7763 1.43644 13.8431 1.41507 13.9114 1.41507C13.9796 1.41507 14.0464 1.43644 14.1038 1.47664C14.1613 1.51684 14.2069 1.57418 14.2353 1.64184L15.2796 4.10586C15.4331 4.47123 15.6616 4.7932 15.9474 5.04691C16.2331 5.30061 16.5685 5.47925 16.9276 5.56903L18.8664 6.06129C18.915 6.07363 18.9598 6.0995 18.9964 6.13635C19.0331 6.17321 19.0603 6.2198 19.0755 6.27158C19.0908 6.32336 19.0934 6.37856 19.0833 6.4318C19.0731 6.48503 19.0505 6.53448 19.0176 6.57533L17.5969 8.32818C17.3219 8.66935 17.1318 9.08183 17.0447 9.52612C16.9577 9.97042 16.9766 10.4313 17.0997 10.8653Z" fill="white"/>
<path id="Trazado 515" d="M6.60153 9.2181L5.49668 8.93775C5.39233 8.91169 5.29486 8.85981 5.21181 8.78613C5.12875 8.71244 5.06233 8.61891 5.01768 8.51276L4.42284 7.10908C4.35244 6.94289 4.2399 6.80217 4.09852 6.70353C3.95715 6.6049 3.79285 6.55249 3.62503 6.55249C3.45722 6.55249 3.29292 6.6049 3.15154 6.70353C3.01016 6.80217 2.89763 6.94289 2.82723 7.10908L2.23239 8.51276C2.18725 8.61841 2.12078 8.71152 2.03794 8.78512C1.9551 8.85873 1.85806 8.91091 1.7541 8.93775L0.649252 9.2181C0.507632 9.25408 0.377004 9.32956 0.270155 9.43716C0.163307 9.54476 0.0839033 9.68079 0.0397142 9.83192C-0.00447485 9.98306 -0.0119343 10.1441 0.0180699 10.2993C0.0480741 10.4546 0.114512 10.5986 0.210878 10.7174L1.01991 11.7163C1.09946 11.8154 1.15435 11.9352 1.17931 12.0641C1.20428 12.1929 1.19848 12.3267 1.16247 12.4524L0.791457 13.7488C0.743896 13.9149 0.740685 14.0923 0.782196 14.2603C0.823706 14.4283 0.90822 14.58 1.02585 14.6975C1.14348 14.815 1.28936 14.8936 1.44642 14.9239C1.60348 14.9543 1.76521 14.9352 1.9127 14.869L3.12696 14.3246C3.28436 14.2532 3.45314 14.2164 3.62361 14.2164C3.79407 14.2164 3.96286 14.2532 4.12025 14.3246L5.33452 14.869C5.43623 14.9149 5.5452 14.9387 5.65528 14.939C5.78675 14.9382 5.91622 14.9038 6.03331 14.8386C6.15039 14.7734 6.25184 14.6791 6.3295 14.5634C6.40716 14.4477 6.45888 14.3137 6.48049 14.1722C6.50211 14.0307 6.49303 13.8857 6.45398 13.7488L6.08296 12.4524C6.04696 12.3266 6.04116 12.1928 6.06613 12.0639C6.09109 11.9349 6.14597 11.8151 6.22552 11.7159L7.03456 10.7178C7.13091 10.599 7.19732 10.4548 7.22729 10.2996C7.25727 10.1443 7.24978 9.9832 7.20556 9.83203C7.16134 9.68087 7.0819 9.54482 6.97502 9.4372C6.86814 9.32959 6.73748 9.25409 6.59582 9.2181H6.60153Z" fill="white"/>
<path id="Trazado 516" d="M27.7894 10.7175C27.8857 10.5986 27.9521 10.4544 27.9821 10.2991C28.012 10.1438 28.0045 9.98271 27.9603 9.83154C27.916 9.68037 27.8365 9.54433 27.7296 9.43673C27.6227 9.32914 27.492 9.25367 27.3503 9.21774L26.2454 8.93739C26.1414 8.91063 26.0443 8.85848 25.9614 8.78487C25.8785 8.71126 25.812 8.6181 25.7668 8.5124L25.1716 7.10872C25.1012 6.94253 24.9887 6.8018 24.8473 6.70317C24.7059 6.60454 24.5416 6.55212 24.3738 6.55212C24.206 6.55212 24.0417 6.60454 23.9003 6.70317C23.7589 6.8018 23.6464 6.94253 23.576 7.10872L22.9812 8.5124C22.9365 8.61848 22.8701 8.71197 22.7872 8.78565C22.7042 8.85934 22.6068 8.91125 22.5025 8.93739L21.3977 9.21774C21.256 9.25366 21.1253 9.32911 21.0185 9.43668C20.9116 9.54426 20.8321 9.68029 20.7879 9.83143C20.7437 9.98257 20.7362 10.1437 20.7661 10.2989C20.7961 10.4542 20.8626 10.5982 20.9589 10.7171L21.768 11.716C21.8475 11.8151 21.9024 11.9348 21.9273 12.0637C21.9523 12.1926 21.9465 12.3263 21.9105 12.452L21.5395 13.7484C21.5005 13.8856 21.4916 14.0308 21.5134 14.1724C21.5353 14.3141 21.5873 14.4481 21.6652 14.5639C21.7432 14.6796 21.8449 14.7737 21.9623 14.8388C22.0797 14.9038 22.2094 14.9378 22.3411 14.9382C22.4511 14.9379 22.5601 14.9141 22.6618 14.8682L23.8761 14.3239C24.0335 14.2525 24.2023 14.2157 24.3727 14.2157C24.5432 14.2157 24.712 14.2525 24.8694 14.3239L26.0836 14.8682C26.2312 14.9345 26.3929 14.9535 26.55 14.9231C26.7071 14.8927 26.853 14.8142 26.9707 14.6966C27.0884 14.5791 27.1729 14.4274 27.2144 14.2593C27.256 14.0913 27.2528 13.9138 27.2052 13.7476L26.8342 12.4516C26.7985 12.3257 26.793 12.1918 26.8183 12.0629C26.8436 11.9339 26.8987 11.8142 26.9786 11.7152L27.7894 10.7175Z" fill="white"/>
<path id="Trazado 517" d="M16.3389 16.1052H11.6611C10.5548 16.1056 9.48901 16.5596 8.67513 17.3771C8.21962 17.8285 7.85558 18.3787 7.60634 18.9925C7.3571 19.6063 7.22816 20.2702 7.22778 20.9415V24H20.7711V20.9407C20.7696 19.6588 20.3021 18.4298 19.4712 17.5233C18.6404 16.6169 17.5139 16.1069 16.3389 16.1052ZM16.3389 17.7896H11.6614C10.9047 17.7625 10.1548 17.9536 9.48738 18.3437C10.08 17.7483 10.8558 17.417 11.6614 17.4152H16.3389C17.1958 17.4162 18.0175 17.7881 18.6235 18.4491C19.2295 19.1102 19.5704 20.0065 19.5714 20.9415C19.5714 20.9415 19.1266 17.7912 16.3389 17.7912V17.7896Z" fill="white"/>
</g>
</svg>
