<svg width="141" height="90" viewBox="0 0 141 90" fill="none" xmlns="http://www.w3.org/2000/svg">
<g id="logo 1" clip-path="url(#clip0_1_841)">
<g id="Grupo 393">
<g id="Grupo 391">
<path id="Trazado 509" d="M-6.56792e-05 89.53H4.33722V81.9964H14.4381V78.1916H4.33722V73.163H17.4676V69.3582H-0.00415039L-6.56792e-05 89.53Z" fill="#181E45"/>
<path id="Rect&#195;&#161;ngulo 131" d="M27.6902 69.3655H23.3508V89.526H27.6902V69.3655Z" fill="#181E45"/>
<path id="Trazado 510" d="M46.486 69.3654H35.536V89.5259H46.5126C49.3013 89.6346 52.0194 88.6283 54.0734 86.7268C55.9481 84.7763 56.9939 82.1674 56.9889 79.4536C56.984 76.7399 55.9286 74.1348 54.0468 72.1913C53.0345 71.2409 51.8452 70.5018 50.5474 70.0168C49.2496 69.5318 47.8693 69.3104 46.486 69.3654ZM50.9193 83.9822C50.2977 84.5776 49.5634 85.0412 48.7602 85.3454C47.957 85.6496 47.1013 85.7882 46.2438 85.753H39.8764V73.1384H46.204C47.0673 73.1056 47.9285 73.2453 48.7378 73.5494C49.5472 73.8535 50.2886 74.316 50.9193 74.9102C52.0997 76.1214 52.7609 77.7502 52.7609 79.4467C52.7609 81.1432 52.0997 82.772 50.9193 83.9832V83.9822Z" fill="#181E45"/>
<path id="Trazado 511" d="M81.2283 78.8034V78.6954C81.9315 78.2525 82.5057 77.6302 82.8926 76.8917C83.2795 76.1532 83.4653 75.3247 83.4312 74.4905C83.4609 73.7519 83.3039 73.0178 82.9749 72.3568C82.6459 71.6959 82.1557 71.1297 81.5501 70.7114C79.9702 69.7251 78.1257 69.2552 76.2698 69.3663H63.4265V89.5268H76.6069C78.5849 89.6535 80.5504 89.1318 82.2091 88.0399C82.8557 87.5471 83.3726 86.9025 83.7146 86.1624C84.0565 85.4222 84.2132 84.609 84.1709 83.7939C84.2097 82.7652 83.9527 81.7472 83.4307 80.8619C82.9087 79.9767 82.144 79.2619 81.2283 78.8034ZM76.6877 73.165C77.3587 73.1238 78.0233 73.3174 78.5687 73.7131C78.791 73.8962 78.9676 74.1291 79.0843 74.3932C79.2011 74.6573 79.2547 74.9453 79.241 75.234C79.2546 75.5238 79.2009 75.8127 79.0842 76.078C78.9675 76.3432 78.791 76.5775 78.5687 76.7621C78.0339 77.1593 77.3778 77.3554 76.7142 77.3164H67.7669V73.165H76.6877ZM79.0254 85.104C78.3408 85.5541 77.5305 85.7705 76.7142 85.721H67.7669V81.0153H76.7142C77.528 80.9679 78.3355 81.1841 79.0183 81.6323C79.2794 81.8376 79.4907 82.0999 79.6362 82.3994C79.7818 82.6989 79.8578 83.0278 79.8585 83.3613C79.8592 83.6947 79.7845 84.0239 79.6402 84.3241C79.4959 84.6242 79.2856 84.8874 79.0254 85.0937V85.104Z" fill="#181E45"/>
<path id="Trazado 512" d="M97.0948 69.3655L87.3811 89.526H91.9493L93.9243 85.3479H105.209L107.211 89.526H111.926L102.213 69.3655H97.0948ZM95.4426 81.7107L99.5674 73.0161L103.719 81.7107H95.4426Z" fill="#181E45"/>
<path id="Trazado 513" d="M137.172 86.5108C138.098 85.5916 138.828 84.491 139.315 83.277C139.803 82.0631 140.038 80.7614 140.007 79.4523C140.052 77.9984 139.762 76.5538 139.161 75.231C138.56 73.9082 137.663 72.743 136.541 71.8262C133.922 69.9187 130.772 68.8918 127.54 68.8918C124.307 68.8918 121.157 69.9187 118.538 71.8262C117.458 72.7785 116.592 73.9521 115.999 75.2685C115.406 76.5849 115.099 78.0136 115.099 79.459C115.099 80.9044 115.406 82.3331 115.999 83.6495C116.592 84.9659 117.458 86.1395 118.538 87.0918C121.094 89.1189 124.289 90.151 127.54 89.9989C129.909 90.0496 132.257 89.5351 134.391 88.4976L135.681 89.5259H141.001L137.172 86.5108ZM133.866 83.8742L131.891 82.2916H126.571L130.897 85.7262C129.804 86.0863 128.661 86.2645 127.511 86.2537C125.424 86.3402 123.376 85.6736 121.734 84.3739C121.041 83.7564 120.485 82.9977 120.105 82.148C119.725 81.2983 119.528 80.377 119.528 79.4451C119.528 78.5132 119.725 77.5919 120.105 76.7423C120.485 75.8926 121.041 75.1339 121.734 74.5163C123.421 73.2944 125.446 72.637 127.524 72.637C129.602 72.637 131.628 73.2944 133.314 74.5163C134.047 75.1048 134.633 75.8577 135.025 76.7148C135.417 77.5719 135.604 78.5094 135.572 79.4523C135.593 81.0928 134.982 82.6777 133.866 83.8742Z" fill="#181E45"/>
</g>
<g id="Grupo 392">
<path id="Trazado 514" d="M87.6713 19.8726C88.1928 19.2791 88.5522 18.5594 88.7144 17.7841C88.8766 17.0087 88.8359 16.2043 88.5965 15.4495C88.357 14.6947 87.927 14.0154 87.3484 13.4781C86.7698 12.9408 86.0625 12.5639 85.2957 12.3843L79.7354 11.0814C79.2584 10.971 78.813 10.7519 78.4334 10.441C78.0537 10.1301 77.7501 9.7356 77.5458 9.28797L74.5521 2.77038C74.1719 1.94299 73.5643 1.24242 72.8012 0.751425C72.0381 0.260426 71.1512 -0.000488281 70.2455 -0.000488281C69.3398 -0.000488281 68.4529 0.260426 67.6898 0.751425C66.9266 1.24242 66.3191 1.94299 65.9388 2.77038L62.9452 9.28694C62.7409 9.73489 62.4372 10.1296 62.0574 10.4408C61.6776 10.7519 61.2318 10.9711 60.7546 11.0814L55.1953 12.3843C54.4287 12.564 53.7216 12.9409 53.1431 13.4781C52.5647 14.0153 52.1347 14.6945 51.8953 15.4491C51.6558 16.2038 51.6152 17.008 51.7772 17.7832C51.9393 18.5584 52.2985 19.278 52.8197 19.8716L56.8934 24.5094C57.2585 24.9272 57.5108 25.4324 57.6262 25.9766C57.7416 26.5207 57.7162 27.0856 57.5524 27.617L55.6857 33.6338C55.4235 34.4631 55.4037 35.3507 55.6289 36.1909C55.8541 37.0311 56.3147 37.7884 56.9557 38.3724C57.5944 38.9566 58.3842 39.347 59.2339 39.4985C60.0837 39.6501 60.9587 39.5567 61.7579 39.229L67.8679 36.6962C68.6213 36.3813 69.4291 36.2191 70.245 36.2191C71.0608 36.2191 71.8686 36.3813 72.6221 36.6962L78.7331 39.229C79.2867 39.4598 79.88 39.5789 80.4792 39.5797C81.191 39.5754 81.8918 39.4034 82.5256 39.0775C83.1594 38.7515 83.7086 38.2806 84.129 37.7026C84.5495 37.1246 84.8296 36.4555 84.9468 35.749C85.0641 35.0424 85.0152 34.318 84.8043 33.6338L82.9365 27.617C82.7733 27.0853 82.7482 26.5203 82.8638 25.9761C82.9794 25.4318 83.2316 24.9265 83.5966 24.5084L87.6713 19.8726ZM79.386 28.7348L81.2527 34.7496C81.2992 34.9002 81.3021 35.061 81.2612 35.2132C81.2203 35.3654 81.1371 35.5028 81.0215 35.6092C80.9059 35.7157 80.7626 35.7868 80.6083 35.8143C80.454 35.8418 80.2951 35.8245 80.1502 35.7645L74.0392 33.2318C72.8365 32.7293 71.5471 32.4706 70.245 32.4706C68.9428 32.4706 67.6534 32.7293 66.4507 33.2318L60.3377 35.7656C60.1928 35.8251 60.034 35.842 59.8799 35.8141C59.7259 35.7862 59.5829 35.7147 59.4677 35.608C59.3525 35.5014 59.2698 35.3639 59.2294 35.2117C59.1889 35.0595 59.1924 34.8988 59.2393 34.7485L61.106 28.7338C61.4584 27.5866 61.5123 26.3675 61.2628 25.1932C61.0132 24.019 60.4685 22.9288 59.6807 22.027L55.608 17.3902C55.5134 17.2825 55.4482 17.1518 55.4188 17.0111C55.3893 16.8703 55.3967 16.7243 55.4402 16.5873C55.4836 16.4503 55.5617 16.327 55.6667 16.2294C55.7717 16.1319 55.9 16.0634 56.0392 16.0308L61.5985 14.7289C62.628 14.4911 63.5894 14.0183 64.4086 13.3472C65.2277 12.6761 65.8827 11.8245 66.323 10.8582L69.3167 4.34167C69.3982 4.16272 69.5291 4.01108 69.6938 3.90477C69.8584 3.79846 70.0499 3.74194 70.2455 3.74194C70.4411 3.74194 70.6326 3.79846 70.7972 3.90477C70.9619 4.01108 71.0927 4.16272 71.1743 4.34167L74.1679 10.8582C74.6081 11.8245 75.2631 12.676 76.0823 13.347C76.9015 14.018 77.863 14.4904 78.8925 14.7279L84.4507 16.0297C84.5899 16.0624 84.7183 16.1308 84.8233 16.2283C84.9284 16.3257 85.0066 16.4489 85.0502 16.5859C85.0939 16.7228 85.1015 16.8688 85.0723 17.0096C85.0432 17.1504 84.9783 17.2812 84.884 17.3892L80.8113 22.0249C80.0229 22.9272 79.4778 24.0181 79.2283 25.1931C78.9787 26.3682 79.033 27.587 79.386 28.7348Z" fill="#181E45"/>
<path id="Trazado 515" d="M49.2896 24.3788L46.1222 23.6374C45.8231 23.5685 45.5436 23.4313 45.3055 23.2364C45.0674 23.0415 44.877 22.7941 44.749 22.5134L43.0437 18.8011C42.8419 18.3616 42.5193 17.9894 42.114 17.7286C41.7087 17.4677 41.2376 17.3291 40.7566 17.3291C40.2755 17.3291 39.8044 17.4677 39.3991 17.7286C38.9938 17.9894 38.6712 18.3616 38.4694 18.8011L36.7641 22.5134C36.6347 22.7928 36.4441 23.0391 36.2067 23.2337C35.9692 23.4284 35.691 23.5664 35.3929 23.6374L32.2255 24.3788C31.8195 24.474 31.4451 24.6736 31.1387 24.9582C30.8324 25.2427 30.6048 25.6025 30.4781 26.0022C30.3514 26.4019 30.33 26.8279 30.4161 27.2384C30.5021 27.6489 30.6925 28.0299 30.9688 28.3441L33.2882 30.9859C33.5162 31.248 33.6736 31.5646 33.7451 31.9055C33.8167 32.2463 33.8001 32.6 33.6968 32.9325L32.6332 36.361C32.4969 36.8003 32.4877 37.2696 32.6067 37.7139C32.7257 38.1583 32.968 38.5593 33.3052 38.8702C33.6424 39.181 34.0606 39.3887 34.5109 39.469C34.9611 39.5493 35.4248 39.4989 35.8476 39.3236L39.3287 37.884C39.7799 37.6951 40.2638 37.5979 40.7525 37.5979C41.2412 37.5979 41.725 37.6951 42.1763 37.884L45.6573 39.3236C45.9489 39.445 46.2613 39.5079 46.5769 39.5087C46.9538 39.5067 47.3249 39.4158 47.6606 39.2433C47.9963 39.0709 48.2871 38.8216 48.5098 38.5155C48.7324 38.2094 48.8807 37.8551 48.9426 37.4809C49.0046 37.1068 48.9786 36.7232 48.8666 36.361L47.803 32.9325C47.6998 32.5998 47.6832 32.246 47.7547 31.905C47.8263 31.564 47.9836 31.2471 48.2117 30.9848L50.531 28.3451C50.8072 28.0307 50.9976 27.6496 51.0836 27.239C51.1695 26.8283 51.148 26.4023 51.0212 26.0025C50.8945 25.6027 50.6667 25.2429 50.3603 24.9583C50.0539 24.6737 49.6793 24.474 49.2733 24.3788H49.2896Z" fill="#181E45"/>
<path id="Trazado 516" d="M110.031 28.3441C110.307 28.0297 110.498 27.6485 110.583 27.2378C110.669 26.8271 110.648 26.401 110.521 26.0012C110.394 25.6014 110.166 25.2416 109.86 24.957C109.553 24.6725 109.178 24.4729 108.772 24.3778L105.605 23.6364C105.307 23.5656 105.028 23.4277 104.79 23.233C104.553 23.0384 104.362 22.792 104.233 22.5124L102.526 18.8001C102.324 18.3606 102.002 17.9884 101.597 17.7276C101.191 17.4667 100.72 17.3281 100.239 17.3281C99.7581 17.3281 99.287 17.4667 98.8817 17.7276C98.4764 17.9884 98.1538 18.3606 97.952 18.8001L96.2467 22.5124C96.1187 22.793 95.9285 23.0402 95.6906 23.2351C95.4527 23.43 95.1735 23.5673 94.8745 23.6364L91.7071 24.3778C91.301 24.4729 90.9264 24.6724 90.62 24.9569C90.3136 25.2414 90.0858 25.6011 89.959 26.0009C89.8322 26.4006 89.8107 26.8266 89.8967 27.2372C89.9826 27.6478 90.1731 28.0289 90.4493 28.3431L92.7687 30.9849C92.9967 31.247 93.154 31.5637 93.2255 31.9045C93.2971 32.2454 93.2805 32.599 93.1774 32.9315L92.1138 36.36C92.0021 36.7228 91.9765 37.1069 92.039 37.4815C92.1016 37.8561 92.2506 38.2106 92.4741 38.5167C92.6976 38.8227 92.9894 39.0717 93.3259 39.2437C93.6624 39.4156 94.0343 39.5057 94.4117 39.5067C94.7272 39.5059 95.0396 39.4431 95.3312 39.3216L98.8123 37.882C99.2636 37.6932 99.7474 37.596 100.236 37.596C100.725 37.596 101.209 37.6932 101.66 37.882L105.141 39.3216C105.564 39.4968 106.028 39.5472 106.478 39.4668C106.928 39.3864 107.347 39.1786 107.684 38.8678C108.021 38.5569 108.264 38.1557 108.383 37.7112C108.502 37.2668 108.493 36.7974 108.356 36.358L107.293 32.9305C107.19 32.5974 107.175 32.2433 107.247 31.9023C107.319 31.5613 107.478 31.2447 107.707 30.9828L110.031 28.3441Z" fill="#181E45"/>
<path id="Trazado 517" d="M77.2046 42.5928H63.7943C60.6227 42.5938 57.5674 43.7944 55.2341 45.9565C53.9283 47.1502 52.8846 48.6054 52.1701 50.2287C51.4556 51.852 51.0859 53.6077 51.0848 55.3832V63.4721H89.9109V55.3812C89.9066 51.9908 88.5665 48.7406 86.1846 46.3432C83.8026 43.9459 80.5732 42.5971 77.2046 42.5928ZM77.2046 47.0475H63.7953C61.6259 46.9758 59.476 47.4813 57.5627 48.5129C59.2617 46.9383 61.4856 46.0621 63.7953 46.0572H77.2046C79.6614 46.06 82.0168 47.0434 83.7541 48.7917C85.4914 50.54 86.4688 52.9106 86.4718 55.3832C86.4718 55.3832 85.1966 47.0516 77.2046 47.0516V47.0475Z" fill="#181E45"/>
</g>
</g>
</g>
<defs>
<clipPath id="clip0_1_841">
<rect width="141" height="90" fill="white"/>
</clipPath>
</defs>
</svg>
