<svg width="42" height="42" viewBox="0 0 42 42" fill="none" xmlns="http://www.w3.org/2000/svg">
<g id="product">
<path id="Vector" d="M17.7188 34.0397C18.2824 33.8951 18.7818 33.5671 19.1383 33.1072C19.4948 32.6473 19.688 32.0819 19.6875 31.5V18.375C19.688 17.7931 19.4948 17.2277 19.1383 16.7678C18.7818 16.3079 18.2824 15.9799 17.7188 15.8353C17.505 15.7767 17.2841 15.748 17.0625 15.75H3.9375C3.59275 15.7499 3.25136 15.8177 2.93284 15.9496C2.61432 16.0815 2.3249 16.2749 2.08113 16.5186C1.83735 16.7624 1.644 17.0518 1.51212 17.3703C1.38023 17.6889 1.3124 18.0303 1.3125 18.375V31.5C1.31241 31.8447 1.38024 32.1861 1.51212 32.5047C1.64401 32.8232 1.83736 33.1126 2.08114 33.3564C2.32491 33.6001 2.61432 33.7935 2.93284 33.9254C3.25137 34.0573 3.59275 34.1251 3.9375 34.125H17.0625C17.2841 34.127 17.505 34.0983 17.7188 34.0397ZM7.21875 31.5H4.59375C4.42139 31.4974 4.25695 31.4272 4.13597 31.3044C4.01499 31.1816 3.94718 31.0161 3.94718 30.8437C3.94719 30.6713 4.01501 30.5059 4.136 30.3831C4.25699 30.2603 4.42143 30.1901 4.59379 30.1875H7.21875C7.39111 30.1901 7.55555 30.2603 7.67653 30.3831C7.79752 30.5059 7.86534 30.6714 7.86534 30.8438C7.86534 31.0161 7.79752 31.1816 7.67653 31.3044C7.55555 31.4272 7.39111 31.4974 7.21875 31.5ZM8.53125 28.875H4.59375C4.42139 28.8724 4.25695 28.8022 4.13597 28.6794C4.01499 28.5566 3.94718 28.3911 3.94718 28.2187C3.94719 28.0463 4.01501 27.8809 4.136 27.7581C4.25699 27.6353 4.42143 27.5651 4.59379 27.5625H8.53125C8.70361 27.5651 8.86805 27.6353 8.98903 27.7581C9.11002 27.8809 9.17784 28.0464 9.17784 28.2188C9.17784 28.3911 9.11002 28.5566 8.98903 28.6794C8.86805 28.8022 8.70361 28.8724 8.53125 28.875ZM14.4375 19.0312C14.436 19.5529 14.2281 20.0528 13.8592 20.4217C13.4903 20.7906 12.9904 20.9985 12.4688 21H8.53125C8.00958 20.9985 7.5097 20.7906 7.14082 20.4217C6.77194 20.0528 6.56403 19.5529 6.5625 19.0312V17.0625H7.875V19.0312C7.87552 19.2051 7.94483 19.3718 8.06778 19.4947C8.19074 19.6177 8.35736 19.687 8.53125 19.6875H12.4688C12.6426 19.687 12.8093 19.6177 12.9322 19.4947C13.0552 19.3718 13.1245 19.2051 13.125 19.0312V17.0625H14.4375V19.0312ZM23.625 11.1562H30.1875C30.7091 11.1543 31.2087 10.9463 31.5775 10.5775C31.9463 10.2087 32.1543 9.70906 32.1562 9.1875V5.90625C32.1547 5.38457 31.9468 4.8847 31.5779 4.51581C31.2091 4.14693 30.7092 3.93902 30.1875 3.9375H23.625C23.1033 3.93902 22.6034 4.14693 22.2346 4.51581C21.8657 4.8847 21.6578 5.38457 21.6562 5.90625V9.1875C21.6585 9.70895 21.8667 10.2084 22.2354 10.5771C22.6041 10.9458 23.1036 11.154 23.625 11.1562Z" fill="#181E45"/>
<path id="Vector_2" d="M37.4062 6.5625H33.4688V9.1875H36.0938C36.4415 9.18852 36.7748 9.32712 37.0207 9.57304C37.2666 9.81897 37.4052 10.1522 37.4062 10.5V34.125C37.4052 34.4728 37.2666 34.806 37.0207 35.0519C36.7748 35.2979 36.4415 35.4365 36.0938 35.4375C32.7432 35.44 16.1701 35.4349 13.1906 35.4375C13.342 36.1786 13.7447 36.8447 14.3307 37.323C14.9166 37.8014 15.6498 38.0626 16.4062 38.0625H37.4062C38.2764 38.0622 39.1108 37.7164 39.7261 37.1011C40.3414 36.4858 40.6872 35.6514 40.6875 34.7812V9.84375C40.6872 8.9736 40.3414 8.13919 39.7261 7.5239C39.1108 6.90862 38.2764 6.56281 37.4062 6.5625ZM16.4062 10.5C16.4073 10.1522 16.5459 9.81897 16.7918 9.57304C17.0377 9.32712 17.371 9.18852 17.7188 9.1875H20.3438V6.5625H16.4062C15.5361 6.56281 14.7017 6.90862 14.0864 7.5239C13.4711 8.13919 13.1253 8.9736 13.125 9.84375V14.4375H16.4062V10.5Z" fill="#181E45"/>
<path id="Vector_3" d="M17.7188 14.49C18.6368 14.645 19.4701 15.1204 20.0708 15.8316C20.6716 16.5429 21.0008 17.444 21 18.375V31.5C21.0009 32.469 20.6433 33.404 19.9959 34.125H36.0938V10.5H33.1931C32.9344 11.0824 32.5133 11.5778 31.9802 11.927C31.4472 12.2761 30.8247 12.4642 30.1875 12.4688H23.625C22.9883 12.4657 22.3661 12.2781 21.8338 11.9287C21.3015 11.5793 20.882 11.083 20.6259 10.5H17.7188V14.49ZM29.3934 15.9403C29.5173 15.8174 29.6848 15.7484 29.8594 15.7484C30.0339 15.7484 30.2014 15.8174 30.3253 15.9403L31.1719 16.7934L33.6591 14.2997C33.7835 14.1801 33.9498 14.1141 34.1223 14.1159C34.2948 14.1176 34.4598 14.1869 34.5818 14.3089C34.7038 14.4309 34.7731 14.5958 34.7748 14.7683C34.7765 14.9409 34.7105 15.1072 34.5909 15.2316L31.6378 18.1847C31.5132 18.3063 31.346 18.3743 31.1719 18.3743C30.9978 18.3743 30.8306 18.3063 30.7059 18.1847L29.3934 16.8722C29.2705 16.7483 29.2015 16.5808 29.2015 16.4062C29.2015 16.2317 29.2705 16.0642 29.3934 15.9403ZM29.3934 21.8466C29.5173 21.7236 29.6848 21.6546 29.8594 21.6546C30.0339 21.6546 30.2014 21.7236 30.3253 21.8466L31.1719 22.6997L33.6591 20.2059C33.7835 20.0864 33.9498 20.0204 34.1223 20.0221C34.2948 20.0238 34.4598 20.0931 34.5818 20.2151C34.7038 20.3371 34.7731 20.5021 34.7748 20.6746C34.7765 20.8471 34.7105 21.0134 34.5909 21.1378L31.6378 24.0909C31.5132 24.2125 31.346 24.2806 31.1719 24.2806C30.9978 24.2806 30.8306 24.2125 30.7059 24.0909L29.3934 22.7784C29.2705 22.6545 29.2015 22.4871 29.2015 22.3125C29.2015 22.1379 29.2705 21.9705 29.3934 21.8466ZM29.3934 27.7528C29.5173 27.6299 29.6848 27.5609 29.8594 27.5609C30.0339 27.5609 30.2014 27.6299 30.3253 27.7528L31.1719 28.6059L33.6591 26.1122C33.7835 25.9926 33.9498 25.9266 34.1223 25.9284C34.2948 25.9301 34.4598 25.9994 34.5818 26.1214C34.7038 26.2434 34.7731 26.4083 34.7748 26.5808C34.7765 26.7534 34.7105 26.9197 34.5909 27.0441L31.6378 29.9972C31.5132 30.1188 31.346 30.1868 31.1719 30.1868C30.9978 30.1868 30.8306 30.1188 30.7059 29.9972L29.3934 28.6847C29.2705 28.5608 29.2015 28.3933 29.2015 28.2188C29.2015 28.0442 29.2705 27.8767 29.3934 27.7528ZM21.9844 16.4062C22.0389 16.4075 27.2527 16.4054 27.2344 16.4062C27.4068 16.4088 27.5712 16.4791 27.6922 16.6019C27.8132 16.7247 27.881 16.8902 27.881 17.0625C27.881 17.2349 27.8131 17.4004 27.6921 17.5232C27.5711 17.6459 27.4067 17.7162 27.2343 17.7188H21.9844C21.812 17.7162 21.6476 17.6459 21.5266 17.5231C21.4056 17.4003 21.3378 17.2349 21.3378 17.0625C21.3378 16.8901 21.4056 16.7247 21.5266 16.6019C21.6476 16.4791 21.812 16.4088 21.9844 16.4062ZM21.9844 22.3125C22.0389 22.3137 27.2527 22.3116 27.2344 22.3125C27.4068 22.3151 27.5712 22.3853 27.6922 22.5081C27.8132 22.6309 27.881 22.7964 27.881 22.9688C27.881 23.1412 27.8131 23.3066 27.6921 23.4294C27.5711 23.5522 27.4067 23.6225 27.2343 23.625H21.9844C21.812 23.6224 21.6476 23.5522 21.5266 23.4294C21.4056 23.3066 21.3378 23.1411 21.3378 22.9688C21.3378 22.7964 21.4056 22.6309 21.5266 22.5081C21.6476 22.3853 21.812 22.3151 21.9844 22.3125ZM21.9844 28.2188C22.0389 28.22 27.2527 28.2179 27.2344 28.2188C27.4068 28.2213 27.5712 28.2916 27.6922 28.4144C27.8132 28.5372 27.881 28.7027 27.881 28.875C27.881 29.0474 27.8131 29.2129 27.6921 29.3357C27.5711 29.4584 27.4067 29.5287 27.2343 29.5312H21.9844C21.812 29.5287 21.6476 29.4584 21.5266 29.3356C21.4056 29.2128 21.3378 29.0474 21.3378 28.875C21.3378 28.7026 21.4056 28.5372 21.5266 28.4144C21.6476 28.2916 21.812 28.2213 21.9844 28.2188Z" fill="#181E45"/>
</g>
</svg>
