<svg width="157" height="21" viewBox="0 0 157 21" fill="none" xmlns="http://www.w3.org/2000/svg">
<g id="Frame" clip-path="url(#clip0_1_776)">
<g id="Group">
<path id="Vector" d="M0 10.5519V10.4827C0 4.7397 4.28339 0 10.2594 0C13.541 0 15.6136 1.07249 17.479 2.62932C17.7208 2.8369 17.9281 3.14827 17.9281 3.56343C17.9281 4.18616 17.3754 4.70511 16.7536 4.70511C16.4427 4.70511 16.1663 4.56672 15.9936 4.42834C14.4392 3.04448 12.6774 2.11038 10.1903 2.11038C5.69967 2.11038 2.34895 5.7776 2.34895 10.4135V10.4827C2.34895 15.1878 5.73421 18.855 10.1903 18.855C12.712 18.855 14.4737 17.9901 16.2009 16.3987C16.3736 16.2257 16.6499 16.0873 16.9263 16.0873C17.5135 16.0873 18.0317 16.6063 18.0317 17.1944C18.0317 17.5404 17.859 17.8171 17.6517 17.9901C15.6482 19.8237 13.4719 20.9654 10.1212 20.9654C4.31793 21 0 16.3641 0 10.5519Z" fill="#5E5E5E"/>
<path id="Vector_2" d="M21.3478 10.5519V10.4827C21.3478 4.91268 25.5621 0 31.7109 0C37.8596 0 42.0048 4.84349 42.0048 10.4481V10.5173C42.0048 16.1219 37.8251 21 31.6418 21C25.4931 21 21.3478 16.1565 21.3478 10.5519ZM39.6559 10.5519V10.4827C39.6559 5.88138 36.3052 2.11038 31.6763 2.11038C27.0475 2.11038 23.7313 5.81219 23.7313 10.4135V10.4827C23.7313 15.084 27.0821 18.855 31.7109 18.855C36.3397 18.855 39.6559 15.1532 39.6559 10.5519Z" fill="#5E5E5E"/>
<path id="Vector_3" d="M47.4282 1.34925C47.4282 0.726516 47.9463 0.172974 48.5681 0.172974C49.1899 0.172974 49.7426 0.691919 49.7426 1.34925V9.34101H61.4183V1.34925C61.4183 0.726516 61.9364 0.172974 62.5927 0.172974C63.2145 0.172974 63.7327 0.691919 63.7327 1.34925V19.6161C63.7327 20.2389 63.2145 20.7924 62.5927 20.7924C61.971 20.7924 61.4183 20.2735 61.4183 19.6161V11.5206H49.7426V19.6507C49.7426 20.2735 49.2244 20.827 48.5681 20.827C47.9463 20.827 47.4282 20.3081 47.4282 19.6507V1.34925Z" fill="#5E5E5E"/>
<path id="Vector_4" d="M69.985 19.4777V1.52222C69.985 0.899489 70.5032 0.345947 71.125 0.345947H83.6988C84.286 0.345947 84.7351 0.7957 84.7351 1.38384C84.7351 1.97198 84.286 2.42173 83.6988 2.42173H72.2649V9.341H82.3861C82.9734 9.341 83.4225 9.82535 83.4225 10.3789C83.4225 10.967 82.9734 11.4168 82.3861 11.4168H72.2649V18.509H83.837C84.4242 18.509 84.8733 18.9588 84.8733 19.5469C84.8733 20.1351 84.4242 20.5848 83.837 20.5848H71.0904C70.5032 20.6194 69.985 20.1005 69.985 19.4777Z" fill="#5E5E5E"/>
<path id="Vector_5" d="M112.508 1.34925C112.508 0.726516 113.026 0.172974 113.648 0.172974C114.27 0.172974 114.822 0.691919 114.822 1.34925V19.6161C114.822 20.2389 114.304 20.7924 113.648 20.7924C113.026 20.7924 112.508 20.2735 112.508 19.6161V1.34925Z" fill="#5E5E5E"/>
<path id="Vector_6" d="M126.671 2.45633H120.798C120.211 2.45633 119.728 2.00657 119.728 1.41843C119.728 0.830296 120.211 0.345947 120.798 0.345947H134.858C135.445 0.345947 135.928 0.830296 135.928 1.41843C135.928 2.00657 135.445 2.45633 134.858 2.45633H128.985V19.6161C128.985 20.2389 128.467 20.7924 127.845 20.7924C127.224 20.7924 126.671 20.2735 126.671 19.6161V2.45633Z" fill="#5E5E5E"/>
<path id="Vector_7" d="M146.879 12.6623L139.348 2.11037C139.21 1.8682 139.072 1.62602 139.072 1.31465C139.072 0.691919 139.625 0.172974 140.246 0.172974C140.73 0.172974 141.041 0.449745 141.352 0.864901L148.053 10.5173L154.789 0.864901C155.066 0.449745 155.376 0.172974 155.86 0.172974C156.482 0.172974 157 0.691919 157 1.31465C157 1.59143 156.827 1.93739 156.689 2.14497L149.193 12.5931V19.6161C149.193 20.2389 148.675 20.7578 148.019 20.7578C147.397 20.7578 146.844 20.2389 146.844 19.6161V12.6623H146.879Z" fill="#5E5E5E"/>
<path id="Vector_8" d="M100.487 20.8617H91.2638C90.642 20.8617 90.1584 20.3773 90.1584 19.7546C90.1584 19.1318 90.642 18.6475 91.2638 18.6475H100.487C103.285 18.6475 105.53 16.3641 105.53 13.5964C105.53 10.7941 103.25 8.54535 100.487 8.54535H96.3762C95.7545 8.54535 95.2708 8.061 95.2708 7.43826C95.2708 6.81553 95.7545 6.33118 96.3762 6.33118H100.452C104.459 6.33118 107.706 9.58324 107.706 13.5964C107.706 17.6096 104.459 20.8617 100.487 20.8617Z" fill="#5E5E5E"/>
<path id="Vector_9" d="M99.6233 14.7727H95.5472C91.5402 14.7727 88.2931 11.5206 88.2931 7.50743C88.2931 3.49425 91.5402 0.242188 95.5472 0.242188H104.77C105.392 0.242188 105.876 0.726537 105.876 1.34927C105.876 1.97201 105.392 2.45636 104.77 2.45636H95.5472C92.7492 2.45636 90.5039 4.73972 90.5039 7.50743C90.5039 10.3097 92.7837 12.5585 95.5472 12.5585H99.6233C100.245 12.5585 100.729 13.0428 100.729 13.6656C100.694 14.2883 100.211 14.7727 99.6233 14.7727Z" fill="#5E5E5E"/>
</g>
</g>
<defs>
<clipPath id="clip0_1_776">
<rect width="157" height="21" fill="white"/>
</clipPath>
</defs>
</svg>
