<svg width="117" height="38" viewBox="0 0 117 38" fill="none" xmlns="http://www.w3.org/2000/svg">
<g id="Frame" clip-path="url(#clip0_1_788)">
<g id="Group">
<g id="Group_2">
<path id="Vector" d="M85.0107 10.4081H82.703V27.6859H92.0653V25.5403H85.0107V10.4081ZM100.977 24.6557C100.396 25.258 99.42 25.8603 98.1066 25.8603C96.343 25.8603 95.6301 24.9945 95.6301 23.8464C95.6301 22.1337 96.8121 21.3055 99.3449 21.3055C99.814 21.3055 100.583 21.362 100.977 21.4373V24.6557ZM98.5945 14.1911C96.7183 14.1911 95.0109 14.8499 93.6788 15.9603L94.5043 17.3907C95.4424 16.8449 96.6057 16.2803 98.2755 16.2803C100.17 16.2803 101.015 17.259 101.015 18.8964V19.7434C100.64 19.6681 99.889 19.6116 99.4012 19.6116C95.3486 19.6116 93.3036 21.0421 93.3036 24.0158C93.3036 26.6884 94.9359 28.0247 97.4124 28.0247C99.0823 28.0247 100.677 27.253 101.221 26.0109L101.634 27.7048H103.266V18.8588C103.247 16.0544 102.028 14.1911 98.5945 14.1911ZM110.715 25.9544C109.852 25.9544 109.082 25.8415 108.501 25.578V17.5978C109.289 16.939 110.264 16.4685 111.503 16.4685C113.735 16.4685 114.598 18.0495 114.598 20.6092C114.617 24.2417 113.21 25.9544 110.715 25.9544ZM111.69 14.1911C109.627 14.1911 108.501 15.6027 108.501 15.6027V13.363V10.4081H106.231V27.2719C107.356 27.7424 108.914 28.0059 110.602 28.0059C114.917 28.0059 117 25.2392 117 20.4586C117 16.6944 115.086 14.1911 111.69 14.1911ZM59.8321 12.2902C61.8772 12.2902 63.2093 12.9678 64.0723 13.6641L65.0667 11.9326C63.7158 10.7469 61.8772 10.1069 59.9447 10.1069C55.029 10.1069 51.5768 13.1183 51.5768 19.1788C51.5768 25.5403 55.2917 28.0247 59.5507 28.0247C61.6895 28.0247 63.4907 27.5165 64.6727 27.0272L64.6164 20.2327V18.0683H58.2936V20.2139H62.3275L62.3837 25.3709C61.8584 25.6344 60.9391 25.8415 59.7008 25.8415C56.2861 25.8415 53.9971 23.677 53.9971 19.1411C53.9971 14.5299 56.3611 12.2902 59.8321 12.2902ZM76.1175 10.4081H73.8473V13.3065V23.3382C73.8473 26.1426 75.0669 28.0059 78.5003 28.0059C78.9694 28.0059 79.4384 27.9683 79.8887 27.8742V25.8415C79.5698 25.8979 79.2133 25.9167 78.838 25.9167C76.9431 25.9167 76.0988 24.938 76.0988 23.3006V16.3932H79.8887V14.5111H76.0988L76.1175 10.4081ZM68.1062 27.6859H70.3764V14.5111H68.1062V27.6859ZM68.1062 12.6854H70.3764V10.4081H68.1062V12.6854Z" fill="#5E5E5E"/>
</g>
<path id="XMLID_23_" d="M20.5632 38L28.143 14.624H12.9833L20.5632 38Z" fill="#5E5E5E"/>
<path id="XMLID_22_" d="M20.5632 38L12.9833 14.624H2.38278L20.5632 38Z" fill="#5E5E5E"/>
<path id="XMLID_21_" d="M2.38278 14.624L0.0750495 21.7196C-0.131333 22.3595 0.0938116 23.0747 0.63791 23.47L20.5444 37.9811L2.38278 14.624Z" fill="#5E5E5E"/>
<path id="XMLID_20_" d="M2.38278 14.624H13.0021L8.42415 0.545759C8.19901 -0.188267 7.1671 -0.188267 6.94195 0.545759L2.38278 14.624Z" fill="#5E5E5E"/>
<path id="XMLID_19_" d="M20.5632 38L28.143 14.624H38.7624L20.5632 38Z" fill="#5E5E5E"/>
<path id="XMLID_18_" d="M38.7436 14.624L41.0513 21.7196C41.2577 22.3595 41.0326 23.0747 40.4885 23.47L20.5819 37.9811L38.7436 14.624Z" fill="#5E5E5E"/>
<path id="XMLID_17_" d="M38.7436 14.6241H28.1243L32.6835 0.545803C32.9274 -0.169402 33.9405 -0.169402 34.1657 0.545803L38.7436 14.6241Z" fill="#5E5E5E"/>
</g>
</g>
<defs>
<clipPath id="clip0_1_788">
<rect width="117" height="38" fill="white"/>
</clipPath>
</defs>
</svg>
