<svg width="160" height="50" viewBox="0 0 160 50" fill="none" xmlns="http://www.w3.org/2000/svg">
<g id="Frame 178">
<g id="Group">
<path id="Vector" d="M37.8789 18.6309C37.6119 18.8951 37.0816 18.8951 36.8154 18.6309L32.0302 13.8752C31.7631 13.612 31.7631 13.0836 32.0302 12.8193L36.8154 8.19815C37.0825 7.93395 37.6128 7.93395 37.8789 8.19815L42.6642 12.9529C42.9284 13.2161 42.9284 13.7445 42.6642 14.0087L37.878 18.6299H37.8789V18.6309Z" fill="#5E5E5E"/>
<path id="Vector_2" d="M37.8789 42.0068C37.6119 42.271 37.0816 42.271 36.8154 42.0068L32.0302 37.2521C31.7631 36.9888 31.7631 36.4604 32.0302 36.1962L36.8154 31.4424C37.0825 31.1782 37.6128 31.1782 37.8789 31.4424L42.6642 36.1971C42.9284 36.4623 42.9284 36.9907 42.6642 37.254L37.878 42.0087L37.8789 42.0068Z" fill="#5E5E5E"/>
<path id="Vector_3" d="M49.7092 30.2519C49.4421 30.5171 48.9118 30.5171 48.6457 30.2519L43.8605 25.4981C43.5934 25.2339 43.5934 24.7065 43.8605 24.4423L48.6457 19.6875C48.9128 19.4233 49.4431 19.4233 49.7092 19.6875L54.4944 24.4423C54.7615 24.7065 54.7615 25.2339 54.4944 25.4981L49.7092 30.2528V30.2519Z" fill="#5E5E5E"/>
<path id="Vector_4" d="M31.3656 37.6486C31.3656 37.2518 31.0986 37.1202 30.8344 37.3844L28.8409 39.4971C28.5738 39.7613 28.5738 40.1581 28.9744 40.4223L30.8344 41.2139C31.2331 41.3475 31.4982 41.2139 31.4982 40.8181V37.6486H31.3647H31.3656Z" fill="#5E5E5E"/>
<path id="Vector_5" d="M45.7214 40.4225C46.12 40.289 46.1201 39.8941 45.8549 39.4973L43.7279 37.3846C43.4608 37.1204 43.1957 37.2511 43.1957 37.6488V40.8183C43.1957 41.2142 43.4627 41.4784 43.8605 41.2142L45.7204 40.4225H45.7214Z" fill="#5E5E5E"/>
<path id="Vector_6" d="M49.0444 31.7056C49.0444 31.3098 48.6457 30.9139 48.247 30.9139H43.9931C43.5944 30.9139 43.1957 31.3098 43.1957 31.7056V35.931C43.1957 36.3277 43.5944 36.7245 43.9931 36.7245H48.247C48.6457 36.7245 49.0444 36.3277 49.0444 35.9329V31.7056Z" fill="#5E5E5E"/>
<path id="Vector_7" d="M52.7662 16.7823C52.6327 16.3865 52.2349 16.3865 51.8362 16.6488L49.7093 18.7634C49.4422 19.0276 49.5757 19.2918 49.9763 19.2918H53.1649C53.5636 19.2918 53.8297 19.0276 53.5636 18.6308L52.7662 16.7823Z" fill="#5E5E5E"/>
<path id="Vector_8" d="M45.8539 10.7078C46.121 10.311 46.121 9.91614 45.7204 9.7826L43.8605 8.99095C43.4618 8.85741 43.1957 8.99095 43.1957 9.38678V12.5563C43.1957 12.9531 43.4627 13.0847 43.7279 12.8205L45.8549 10.7078H45.8539Z" fill="#5E5E5E"/>
<path id="Vector_9" d="M22.8586 16.6495C22.46 16.3862 22.0613 16.3862 21.9277 16.783L20.9978 18.4999C20.8642 18.8947 21.1313 19.158 21.529 19.158H24.7195C25.1182 19.158 25.2517 18.8947 24.9866 18.6305L22.8596 16.6495H22.8586Z" fill="#5E5E5E"/>
<path id="Vector_10" d="M31.3656 14.2729C31.3656 13.877 30.9669 13.4812 30.5682 13.4812H26.4478C26.0491 13.4812 25.6504 13.877 25.6504 14.2729V18.4982C25.6504 18.895 26.051 19.2918 26.4487 19.2918H30.7027C31.1004 19.2918 31.4991 18.895 31.4991 18.5001V14.2719H31.3656V14.2729Z" fill="#5E5E5E"/>
<path id="Vector_11" d="M31.3654 9.38671C31.3654 8.99088 31.0984 8.72668 30.7006 8.99088L28.9742 9.78254C28.5736 9.91607 28.4401 10.311 28.8407 10.7077L30.9677 12.8204C31.2328 13.0846 31.498 12.9539 31.498 12.5562V9.38671H31.3645H31.3654Z" fill="#5E5E5E"/>
<path id="Vector_12" d="M53.5635 31.7057C53.6971 31.3099 53.5635 31.0457 53.1648 31.0457H49.9753C49.5766 31.0457 49.4431 31.3108 49.7083 31.575L51.8362 33.6867C52.1033 33.9509 52.501 33.9509 52.7671 33.5551L53.5645 31.7047H53.5635V31.7057Z" fill="#5E5E5E"/>
<path id="Vector_13" d="M31.3656 31.7056C31.3656 31.3098 30.9669 30.9139 30.5682 30.9139H26.4478C26.0491 30.9139 25.6504 31.3098 25.6504 31.7056V35.931C25.6504 36.3277 26.051 36.7245 26.4487 36.7245H30.7027C31.1004 36.7245 31.4991 36.3277 31.4991 35.9329V31.7056H31.3656Z" fill="#5E5E5E"/>
<path id="Vector_14" d="M24.8521 31.4411C25.1192 31.1769 24.9856 30.9127 24.5869 30.9127H21.529C21.1303 30.9127 20.8652 31.1769 21.1303 31.5737L21.9277 33.4222C22.0612 33.818 22.4599 33.818 22.8586 33.5557L24.8521 31.4411Z" fill="#5E5E5E"/>
<path id="Vector_15" d="M49.0444 18.4995C49.0444 18.8954 48.6457 19.2912 48.247 19.2912H43.9931C43.5944 19.2912 43.1957 18.8954 43.1957 18.4995V14.2742C43.1957 13.8774 43.5944 13.4806 43.9931 13.4806H48.247C48.6457 13.4806 49.0444 13.8774 49.0444 14.2723V18.4995Z" fill="#5E5E5E"/>
<path id="Vector_16" d="M26.05 30.252C25.7829 30.5172 25.2517 30.5172 24.9855 30.252L20.2003 25.4992C19.9332 25.235 19.9332 24.7076 20.2003 24.4433L24.9855 19.8212C25.2526 19.557 25.7829 19.557 26.049 19.8212L30.8333 24.575C31.0985 24.8392 31.0985 25.3666 30.8333 25.6318L26.05 30.252Z" fill="#5E5E5E"/>
<path id="Vector_17" d="M115.506 19.0258C114.177 19.0258 113.512 19.4226 112.183 20.8762V20.2152C112.183 19.4235 112.049 19.29 111.253 19.29H110.587C109.79 19.29 109.657 19.4235 109.657 20.2152V32.7606C109.657 33.5542 109.791 33.6858 110.587 33.6858H111.252C112.048 33.6858 112.181 33.5542 112.181 32.7606V26.0267C112.181 24.3099 112.314 23.2531 112.713 22.593C113.244 21.6678 114.439 21.1394 115.504 21.272C115.771 21.272 116.036 21.4036 116.169 21.4036H116.436C116.567 21.4036 116.567 21.272 116.701 21.272C116.834 21.1385 116.966 20.8752 117.1 20.611C117.233 20.4794 117.233 20.3468 117.367 20.2152L117.632 19.6868C117.498 19.4226 116.568 19.0267 115.505 19.0267L115.506 19.0258ZM71.375 19.0258C70.0464 19.0258 69.3816 19.4226 68.0529 20.8762V20.2152C68.0529 19.4235 67.9194 19.29 67.122 19.29H66.4582C65.6608 19.29 65.5282 19.4235 65.5282 20.2152V32.7606C65.5282 33.5542 65.6598 33.6858 66.4572 33.6858H67.122C67.9203 33.6858 68.0539 33.5542 68.0539 32.7606V26.0267C68.0539 24.3099 68.1874 23.2531 68.5851 22.593C69.1174 21.6678 70.3134 21.1394 71.3769 21.272C71.644 21.272 71.9092 21.4036 72.0417 21.4036H72.3088C72.4423 21.4036 72.4423 21.272 72.574 21.272C72.7075 21.1385 72.841 20.8752 72.9727 20.611C73.1062 20.4794 73.1062 20.3468 73.2397 20.2152L73.5039 19.6868C73.3704 19.4226 72.4414 19.0267 71.3769 19.0267L71.375 19.0258ZM78.5534 27.7436C78.5534 29.0636 78.6869 29.8563 78.9521 30.3837C79.4843 31.3089 80.5478 31.8373 81.7439 31.8373C82.9409 31.8373 84.0044 31.3089 84.5357 30.3837C84.8027 29.7237 84.9343 29.0636 84.9343 27.7417V20.2161C84.9343 19.4226 85.0679 19.2909 85.8653 19.2909H86.531C87.3284 19.2909 87.461 19.4226 87.461 20.2161V28.0068C87.461 30.1205 87.0623 31.3089 86.1323 32.3657C85.0688 33.5542 83.4731 34.2142 81.7448 34.2142C79.8849 34.2142 78.4227 33.5542 77.3592 32.3638C76.4283 31.3089 76.0296 30.1205 76.0296 28.0068V20.2142C76.0296 19.4226 76.1631 19.2909 76.9605 19.2909H77.6253C78.4237 19.2909 78.5562 19.4226 78.5562 20.2161V27.7417L78.5534 27.7436ZM94.1042 21.4036C95.5674 19.8203 97.0296 19.0267 99.1566 19.0267C103.143 19.0267 106.069 22.1972 106.069 26.5551C106.069 30.914 103.144 34.2142 99.024 34.2142C97.0305 34.2142 95.4348 33.4225 93.9726 31.8392V32.8941C93.9726 33.6858 93.8391 33.8174 93.0417 33.8174H92.3779C91.5795 33.8174 91.4469 33.6858 91.4469 32.8922V9.38662C91.4469 8.59496 91.5805 8.46143 92.3779 8.46143H93.0417C93.84 8.46143 93.9726 8.59496 93.9726 9.38662V21.4046H94.1062L94.1042 21.4036ZM93.84 26.5542C93.84 29.7237 95.8335 31.9689 98.6253 31.9689C101.416 31.9689 103.411 29.7237 103.411 26.5542C103.411 23.6489 101.417 21.4036 98.6253 21.4036C95.8335 21.272 93.84 23.3847 93.84 26.5542ZM123.749 13.8752C123.749 14.8004 122.95 15.5921 122.019 15.5921C121.089 15.5921 120.291 14.8004 120.291 13.7436C120.291 12.8184 121.089 12.0268 122.019 12.0268C122.95 12.1603 123.748 12.9519 123.748 13.8771L123.749 13.8752ZM123.083 32.8941C123.083 33.6858 122.949 33.8174 122.152 33.8174H121.488C120.69 33.8174 120.557 33.6858 120.557 32.8922V20.3478C120.557 19.5561 120.691 19.4226 121.488 19.4226H122.152C122.95 19.4226 123.083 19.5561 123.083 20.3478V32.8941ZM135.045 19.8194C135.444 19.4226 135.444 19.4226 136.109 19.4226H137.171C137.836 19.4226 138.102 19.5561 138.102 19.951C138.102 20.0826 137.969 20.3468 137.704 20.611L132.652 25.6299L139.033 32.7616C139.298 33.0267 139.431 33.2909 139.431 33.4225C139.431 33.8184 139.166 33.951 138.501 33.951H137.438C136.773 33.951 136.773 33.951 136.374 33.5551L130.924 27.4794L130.259 27.7436V32.7606C130.259 33.5542 130.126 33.6858 129.329 33.6858H128.664C127.867 33.6858 127.735 33.5542 127.735 32.7606V9.38662C127.735 8.59496 127.868 8.46143 128.664 8.46143H129.329C130.127 8.46143 130.259 8.59496 130.259 9.38662V24.7067L135.044 19.8203L135.045 19.8194Z" fill="#5E5E5E"/>
</g>
</g>
</svg>
