<svg width="160" height="50" viewBox="0 0 160 50" fill="none" xmlns="http://www.w3.org/2000/svg">
<g id="Frame 179">
<path id="Vector" d="M103.831 9.87366V39.1095C103.831 40.1391 102.998 40.9831 101.981 40.9831C100.965 40.9831 100.131 40.1391 100.131 39.1095V9.87366C100.131 8.84399 100.965 8 101.981 8C102.998 8 103.831 8.82711 103.831 9.87366ZM119.499 18.4317C113.365 18.4317 108.365 23.4957 108.365 29.7074C108.365 35.9192 113.365 40.9831 119.499 40.9831C122.816 40.9831 125.983 39.6327 128.216 37.2696C128.917 36.5269 128.9 35.3284 128.15 34.6194C127.416 33.9105 126.233 33.9274 125.533 34.687C124 36.3074 121.799 37.2358 119.499 37.2358C115.399 37.2358 112.082 33.8598 112.082 29.7243C112.082 25.5887 115.416 22.2128 119.499 22.2128C122.683 22.2128 125.366 24.4409 126.1 27.4286H117.016C115.999 27.4286 115.166 28.2726 115.166 29.3023C115.166 30.332 115.999 31.176 117.016 31.176H128.15C129.167 31.176 130 30.332 130 29.3023V29.0997C130.017 23.2087 125.3 18.4317 119.499 18.4317ZM39.8104 27.8675C34.8434 27.091 33.9767 26.4496 33.9767 24.998C33.9767 23.5969 35.7935 22.179 39.2604 22.179C40.9605 22.179 43.4107 22.5335 45.3775 24.1708C46.1608 24.8292 47.3443 24.711 47.9943 23.9176C48.6443 23.1074 48.5277 21.9258 47.7443 21.2675C44.9108 18.9212 41.5772 18.4148 39.2604 18.4148C33.0766 18.4148 30.2597 21.8246 30.2597 24.998C30.2597 26.6184 30.8431 28.8465 33.6433 30.1801C35.2768 30.9565 37.2936 31.2772 39.2437 31.5811C44.1774 32.3407 45.0441 32.9821 45.0441 34.4C45.0441 36.088 42.9606 37.2189 39.8604 37.2189C36.5768 37.2189 34.0767 35.8685 32.8766 35.0583C32.0265 34.4844 30.8765 34.7207 30.3097 35.5816C29.743 36.4425 29.9764 37.6072 30.8265 38.1811C33.4933 39.9703 36.7102 40.9662 39.8604 40.9662C46.0108 40.9662 48.761 37.6578 48.761 34.3831C48.761 29.2517 43.594 28.4583 39.8104 27.8675ZM62.3786 22.1959C64.6621 22.1959 66.7789 23.3437 68.0457 25.2849C68.6124 26.1458 69.7625 26.3821 70.6125 25.8082C71.4626 25.2343 71.6959 24.0696 71.1292 23.2087C69.1791 20.221 65.8955 18.4486 62.362 18.4486C56.2282 18.4486 51.2279 23.5125 51.2279 29.7243C51.2279 35.9361 56.2282 41 62.362 41C65.8955 41 69.1624 39.2107 71.1292 36.2399C71.6959 35.379 71.4626 34.2143 70.6125 33.6404C69.7625 33.0665 68.6124 33.3028 68.0457 34.1637C66.7789 36.088 64.6621 37.2527 62.3786 37.2527C58.2783 37.2527 54.9614 33.8767 54.9614 29.7412C54.9614 25.6056 58.2783 22.1959 62.3786 22.1959ZM85.0635 18.4317C78.9298 18.4317 73.9294 23.4957 73.9294 29.7074C73.9294 35.9192 78.9298 40.9831 85.0635 40.9831H86.2969C87.3137 40.9831 88.1471 40.1391 88.1471 39.1095C88.1471 38.0798 87.3137 37.2358 86.2969 37.2358H85.0635C80.9632 37.2358 77.6463 33.8598 77.6463 29.7243C77.6463 25.5887 80.9799 22.2128 85.0635 22.2128C88.8138 22.2128 91.864 25.3018 91.864 29.0997V39.1263C91.864 40.156 92.6974 41 93.7141 41C94.7309 41 95.5642 40.156 95.5642 39.1263V29.0997C95.5809 23.2087 90.8639 18.4317 85.0635 18.4317Z" fill="#5E5E5E"/>
</g>
</svg>
