<svg width="200" height="50" viewBox="0 0 200 50" fill="none" xmlns="http://www.w3.org/2000/svg">
<g id="slack-com">
<g id="Group 179">
<path id="Vector" d="M77.5774 33.8949L79.0745 30.3956C80.7137 31.6096 82.8518 32.2521 84.9904 32.2521C86.5586 32.2521 87.5563 31.6454 87.5563 30.7171C87.5205 28.1461 78.112 30.1457 78.0405 23.6819C78.0047 20.3968 80.9274 17.8616 85.062 17.8616C87.5205 17.8616 89.9801 18.4688 91.7261 19.8616L90.3272 23.4355C88.7207 22.4025 86.7364 21.6823 84.8478 21.6823C83.5648 21.6823 82.7092 22.289 82.7092 23.0751C82.745 25.6104 92.2255 24.2175 92.3324 30.3956C92.3324 33.7523 89.4807 36.1091 85.4177 36.1091C82.4245 36.1091 79.6802 35.3951 77.5769 33.8949H77.5774ZM137.19 29.1285C136.812 29.8 136.263 30.3588 135.597 30.7478C134.932 31.1367 134.176 31.3417 133.405 31.3417C131.004 31.3417 129.057 29.3913 129.057 26.9853C129.057 24.5794 131.004 22.6289 133.405 22.6289C134.176 22.629 134.932 22.834 135.597 23.2229C136.263 23.6118 136.812 24.1707 137.19 24.8421L141.352 22.5318C139.793 19.7456 136.82 17.8616 133.405 17.8616C128.376 17.8616 124.299 21.9461 124.299 26.9853C124.299 32.0241 128.376 36.1091 133.405 36.1091C136.82 36.1091 139.793 34.2251 141.352 31.4389L137.19 29.1285ZM95.0332 35.7518H100.237V10.2666H95.0337L95.0332 35.7518ZM143.98 10.2666V35.7518H149.183V28.1165L155.349 35.7518H162L154.159 26.6812L161.43 18.2173H155.064L149.183 25.2541V10.2666H143.98ZM116.267 18.2183V20.29C115.412 18.8613 113.309 17.8616 111.1 17.8616C106.538 17.8616 102.938 21.897 102.938 26.9674C102.938 32.0379 106.538 36.1091 111.1 36.1091C113.309 36.1091 115.412 35.1093 116.267 33.6807V35.7518H121.471V18.2183H116.267ZM116.267 29.1638C115.519 30.4135 113.951 31.3412 112.205 31.3412C109.803 31.3412 107.857 29.3913 107.857 26.9853C107.857 24.5794 109.803 22.6289 112.205 22.6289C113.951 22.6289 115.519 23.5929 116.267 24.8779V29.1638Z" fill="#5E5E5E"/>
<path id="Vector_2" d="M50.098 9.70374C48.4118 9.70374 47.045 11.0736 47.045 12.7629C47.0446 13.1642 47.1233 13.5617 47.2765 13.9326C47.4297 14.3036 47.6545 14.6407 47.938 14.9248C48.2215 15.2088 48.5581 15.4343 48.9288 15.5882C49.2994 15.7422 49.6967 15.8216 50.098 15.822H53.1516V12.7629C53.1522 11.9523 52.8309 11.1747 52.2583 10.601C51.6857 10.0273 50.9086 9.70455 50.098 9.70374ZM50.098 17.8615H41.9562C40.2699 17.8615 38.9032 19.2313 38.9032 20.9211C38.9032 22.6104 40.2699 23.9803 41.9562 23.9803H50.0986C51.7843 23.9803 53.1516 22.6104 53.1516 20.9211C53.1516 19.2313 51.7843 17.8615 50.098 17.8615Z" fill="#5E5E5E"/>
<path id="Vector_3" d="M69.4352 20.9211C69.4352 19.2313 68.068 17.8615 66.3817 17.8615C64.6955 17.8615 63.3287 19.2313 63.3287 20.9211V23.9803H66.3817C67.1923 23.9795 67.9693 23.6567 68.542 23.083C69.1146 22.5093 69.4359 21.7317 69.4352 20.9211ZM61.2934 20.9211V12.7629C61.294 11.9523 60.9727 11.1747 60.4001 10.601C59.8275 10.0273 59.0504 9.70455 58.2398 9.70374C56.5536 9.70374 55.1868 11.0736 55.1868 12.7629V20.9206C55.1868 22.6109 56.5536 23.9808 58.2398 23.9808C59.0504 23.98 59.8275 23.6572 60.4001 23.0835C60.9727 22.5098 61.294 21.7322 61.2934 20.9216" fill="#5E5E5E"/>
<path id="Vector_4" d="M58.2398 40.2962C59.0504 40.2954 59.8275 39.9726 60.4001 39.3989C60.9727 38.8253 61.294 38.0476 61.2934 37.237C61.294 36.4265 60.9727 35.6488 60.4001 35.0751C59.8275 34.5014 59.0504 34.1787 58.2398 34.1779H55.1868V37.237C55.1868 38.9263 56.5536 40.2962 58.2398 40.2962ZM58.2398 32.1385H66.3822C68.068 32.1385 69.4352 30.7686 69.4352 29.0788C69.4359 28.2682 69.1146 27.4906 68.542 26.9169C67.9693 26.3432 67.1923 26.0205 66.3817 26.0197H58.2398C56.5536 26.0197 55.1868 27.3895 55.1868 29.0788C55.1864 29.4801 55.2651 29.8776 55.4183 30.2485C55.5715 30.6195 55.7963 30.9566 56.0798 31.2407C56.3633 31.5247 56.6999 31.7502 57.0706 31.9041C57.4412 32.0581 57.8385 32.1375 58.2398 32.1379" fill="#5E5E5E"/>
<g id="Group">
<path id="Vector_5" d="M38.903 29.0789C38.9026 29.4803 38.9812 29.8777 39.1344 30.2487C39.2877 30.6196 39.5124 30.9567 39.7959 31.2408C40.0794 31.5249 40.4161 31.7503 40.7867 31.9043C41.1573 32.0582 41.5547 32.1377 41.956 32.1381C42.7666 32.1373 43.5436 31.8145 44.1163 31.2408C44.6889 30.6671 45.0102 29.8895 45.0095 29.0789V26.0198H41.956C40.2698 26.0198 38.903 27.3896 38.903 29.0789ZM47.0449 29.0789V37.2366C47.0449 38.9265 48.4116 40.2963 50.0979 40.2963C50.9084 40.2955 51.6855 39.9727 52.2581 39.3991C52.8308 38.8254 53.1521 38.0477 53.1514 37.2372V29.0789C53.1518 28.6775 53.0731 28.28 52.9199 27.9091C52.7667 27.5381 52.5418 27.2009 52.2583 26.9169C51.9747 26.6328 51.638 26.4074 51.2673 26.2534C50.8966 26.0995 50.4993 26.0201 50.0979 26.0198C48.4116 26.0198 47.0449 27.3896 47.0449 29.0789Z" fill="#5E5E5E"/>
</g>
</g>
</g>
</svg>
