<svg width="200" height="50" viewBox="0 0 200 50" fill="none" xmlns="http://www.w3.org/2000/svg">
<g id="Frame 180">
<g id="Group">
<path id="Vector" d="M46.175 37.9026C43.7201 37.9026 40.0028 36.9549 40.0028 31.4504V22.1574H36.952V20.4735L40.0026 20.158V15.0378L42.3518 14.9335L42.8432 20.0182L48.8754 19.9476V22.1574H42.9843V31.0995C42.9843 34.5707 44.632 35.3776 46.5261 35.3776C47.3322 35.3776 48.419 35.237 49.3312 34.992L49.822 37.3063C48.4895 37.7617 47.1214 37.9026 46.175 37.9026Z" fill="#5E5E5E"/>
<path id="Vector_2" d="M62.3629 28.5039C57.8391 28.5395 54.6475 29.4518 54.6475 32.186C54.6475 34.4308 56.1206 35.6582 58.4 35.6582C59.7676 35.6582 61.2055 35.237 62.3629 34.0443V28.5039ZM63.0638 37.4813C62.9583 37.1312 62.8541 36.6749 62.7486 36.2539C61.1007 37.5167 59.382 37.9027 57.5236 37.9027C54.0868 37.9027 51.6324 35.7273 51.6324 32.2565C51.6324 27.9784 56.1907 26.541 62.363 26.4355V25.8737C62.363 22.4372 60.82 21.806 58.7858 21.806C57.7694 21.806 56.0865 22.1217 54.8232 22.543L54.122 20.3685C55.665 19.7725 57.9093 19.3514 59.417 19.3514C61.9073 19.3514 65.3081 19.9832 65.3081 25.4534V34.1853C65.3081 35.1319 65.4133 36.3936 65.5543 37.3773L63.0638 37.4813Z" fill="#5E5E5E"/>
<path id="Vector_3" d="M75.0082 37.9025C73.115 37.9025 70.4493 37.1655 70.4493 32.3972V12.3725L73.3954 11.9172V32.2912C73.3954 34.9559 74.5173 35.3775 75.7094 35.3775C76.1305 35.3775 76.481 35.3419 76.7965 35.2726L77.428 37.5873C76.7617 37.7617 75.9904 37.9025 75.0082 37.9025Z" fill="#5E5E5E"/>
<path id="Vector_4" d="M90.811 37.3761L84.8147 29.2411H82.9559V37.3761H80.01V12.3734L82.9559 11.9172V27.9782L90.6004 19.9482H94.0725L86.9183 27.3112L94.3526 37.3761H90.811Z" fill="#5E5E5E"/>
<path id="Vector_5" d="M108.787 22.6479C107.84 22.2268 106.577 21.9467 105.351 21.9467C102.02 21.9467 99.6687 23.8754 99.6687 28.6092C99.6687 33.3785 102.16 35.0968 104.791 35.0968C106.262 35.0968 107.701 34.4658 108.787 33.5181V22.6479ZM109.453 37.3761L109.348 36.2188C108.086 37.2015 106.332 37.9029 104.509 37.9029C100.161 37.9029 96.6534 34.9919 96.6534 28.6093C96.6534 22.2625 100.195 19.316 105.315 19.316C106.508 19.316 107.771 19.5619 108.787 19.9481V12.3734L111.769 11.9172V37.3762H109.453V37.3761Z" fill="#5E5E5E"/>
<path id="Vector_6" d="M126.653 27.6083C126.687 26.1178 126.025 23.6678 123.31 23.6678C120.793 23.6678 119.733 25.9516 119.568 27.6083H126.653ZM119.568 30.4557C119.667 33.369 121.919 34.6286 124.535 34.6286C126.422 34.6286 127.746 34.3295 129.006 33.8999L129.601 36.6814C128.211 37.2769 126.29 37.7078 123.972 37.7078C118.739 37.7078 115.661 34.4961 115.661 29.5615C115.661 25.0916 118.376 20.8864 123.542 20.8864C128.773 20.8864 130.496 25.1907 130.496 28.7342C130.496 29.4955 130.429 30.0916 130.362 30.4559H119.568V30.4557Z" fill="#5E5E5E"/>
<path id="Vector_7" d="M138.624 37.9025C136.31 37.9025 134.907 37.4813 133.61 36.9908L133.961 34.6058C135.223 35.2018 136.591 35.5529 138.45 35.5529C140.659 35.5529 142.728 34.816 142.728 32.6067C142.728 31.9764 142.447 31.4502 141.641 30.819C140.344 29.872 138.029 29.2405 136.45 28.154C135.083 27.2074 134.453 25.8736 134.453 24.3311C134.453 21.2456 136.942 19.3512 139.992 19.3512C141.675 19.3512 142.798 19.5965 144.061 20.1234L143.78 22.2979C142.833 21.911 141.85 21.701 140.413 21.701C138.485 21.701 137.398 22.683 137.398 24.1913C137.398 25.0327 137.958 25.839 139.537 26.6457C141.396 27.5577 142.447 27.8372 143.85 28.7497C145.182 29.6617 145.813 30.8542 145.813 32.3624C145.813 36.7449 141.641 37.9025 138.624 37.9025Z" fill="#5E5E5E"/>
<path id="Vector_8" d="M160.458 37.3761L154.462 29.2411H152.603V37.3761H149.657V12.3734L152.603 11.9172V27.9782L160.248 19.9482H163.719L156.566 27.3112L164 37.3761H160.458Z" fill="#5E5E5E"/>
<path id="Vector_9" d="M115.97 21.2234C116.21 19.3013 117.845 17.8132 119.832 17.8132H126.651C128.637 17.8132 130.272 19.3013 130.512 21.2234H131.764C132.226 21.2234 132.673 21.2823 133.103 21.384V20.6952C133.103 17.4687 130.487 14.8521 127.259 14.8521H119.224C115.996 14.8521 113.38 17.4688 113.38 20.6952V21.384C113.81 21.2823 114.257 21.2234 114.719 21.2234H115.97Z" fill="#5E5E5E"/>
</g>
</g>
</svg>
