<svg width="200" height="50" viewBox="0 0 200 50" fill="none" xmlns="http://www.w3.org/2000/svg">
<g id="Frame 181">
<g id="Art">
<g id="Group">
<g id="Group_2">
<path id="Vector" d="M167.727 23.5751V21.8296H165.662V19.3003H163.917V21.8296H162.243V23.5751H163.881V28.6336C163.881 30.0942 165.092 31.3054 166.552 31.3054H167.727V29.5598H166.552C166.053 29.5598 165.626 29.168 165.626 28.6336V23.5751H167.727Z" fill="#5E5E5E"/>
<path id="Vector_2" d="M157.507 21.6514C159.395 21.6514 160.89 23.1832 160.89 25.0712V27.9211C160.89 29.7735 159.359 31.3409 157.507 31.3409H156.831C154.979 31.3409 153.448 29.8091 153.448 27.9211V25.0712C153.448 23.1832 154.979 21.6514 156.831 21.6514H157.507ZM155.228 25.0712V27.9211C155.228 28.8473 155.976 29.5598 156.866 29.5598H157.543C158.469 29.5598 159.181 28.8117 159.181 27.9211V25.0712C159.181 24.145 158.469 23.4325 157.543 23.4325H156.866C155.976 23.3969 155.228 24.145 155.228 25.0712Z" fill="#5E5E5E"/>
<path id="Vector_3" d="M151.525 25.0712V27.9211C151.525 29.8091 149.994 31.3409 148.142 31.3409H147.929C147.145 31.3409 146.398 31.0559 145.828 30.5928V34.3689H144.083V21.8295H145.828V22.3995C146.398 21.9364 147.11 21.6514 147.929 21.6514H148.142C149.994 21.6514 151.525 23.1832 151.525 25.0712ZM149.78 25.0712C149.78 24.1806 149.068 23.4325 148.142 23.4325H147.466C146.576 23.4325 145.828 24.1806 145.828 25.0712V27.9211C145.828 28.8473 146.576 29.5598 147.466 29.5598H148.142C149.068 29.5598 149.78 28.8117 149.78 27.9211V25.0712Z" fill="#5E5E5E"/>
<path id="Vector_4" d="M135.893 28.2418C136.071 28.9898 136.712 29.5598 137.531 29.5598H138.742C139.632 29.5598 140.38 28.8117 140.38 27.9211C140.38 26.8881 139.739 26.2825 138.813 25.9262L137.211 25.3206C135.715 24.7507 134.469 23.7532 134.469 21.8652C134.469 19.9771 136 18.4453 137.852 18.4453H138.706C140.273 18.4453 141.626 19.514 141.982 21.0102L140.273 21.5089C140.131 20.7608 139.454 20.2265 138.671 20.2265H137.816C136.89 20.2265 136.178 20.9746 136.178 21.8652C136.178 22.5776 136.427 23.112 137.852 23.682L139.454 24.3232C141.092 25 142.125 26.2112 142.125 27.9211C142.125 29.8092 140.593 31.3054 138.742 31.3054H137.531C135.929 31.3054 134.611 30.201 134.22 28.7405L135.893 28.2418Z" fill="#5E5E5E"/>
<path id="Vector_5" d="M132.546 23.5751V21.8296H130.481V19.3003H128.736V21.8296H127.098V23.5751H128.736V28.6336C128.736 30.0942 129.947 31.3054 131.407 31.3054H132.582V29.5598H131.407C130.908 29.5598 130.481 29.168 130.481 28.6336V23.5751H132.546Z" fill="#5E5E5E"/>
<path id="Vector_6" d="M125.531 25.0712V31.1629H123.786V25.0712C123.786 24.145 123.074 23.4326 122.148 23.4326H121.472C120.582 23.4326 119.834 24.1807 119.834 25.0712V31.1629H118.089V18.6234H119.834V22.3995C120.404 21.9364 121.116 21.6514 121.935 21.6514H122.148C124.036 21.6514 125.531 23.1832 125.531 25.0712Z" fill="#5E5E5E"/>
<path id="Vector_7" d="M115.81 21.8296V31.0917C115.81 32.9797 114.315 34.4759 112.427 34.4759H111.715C110.113 34.4759 108.795 33.3715 108.439 31.911L110.113 31.4123C110.291 32.1247 110.932 32.6947 111.715 32.6947H112.427C113.318 32.6947 114.065 31.9466 114.065 31.056V29.9517C113.496 30.4148 112.783 30.6998 111.964 30.6998H111.751C109.899 30.6998 108.368 29.168 108.368 27.2799V25C108.368 23.112 109.899 21.5802 111.751 21.5802H111.964C112.748 21.5802 113.496 21.8652 114.065 22.3283V21.7583L115.81 21.8296ZM114.065 27.3512V25.0713C114.065 24.1451 113.353 23.4326 112.427 23.4326H111.751C110.861 23.4326 110.113 24.1807 110.113 25.0713V27.3512C110.113 28.2418 110.861 28.9899 111.751 28.9899H112.427C113.318 28.9899 114.065 28.2418 114.065 27.3512Z" fill="#5E5E5E"/>
<path id="Vector_8" d="M100.677 21.8295V27.9211C100.677 28.8473 101.389 29.5597 102.315 29.5597H102.991C103.917 29.5597 104.629 28.8117 104.629 27.9211V21.8295H106.374V27.9211C106.374 29.8091 104.843 31.3053 102.991 31.3053H102.315C100.427 31.3053 98.9318 29.7735 98.9318 27.8854V21.8295H100.677Z" fill="#5E5E5E"/>
<path id="Vector_9" d="M93.4837 21.6514C95.3709 21.6514 96.8665 23.1832 96.8665 25.0712V27.9211C96.8665 29.7735 95.3353 31.3409 93.4837 31.3409H92.8071C90.9555 31.3409 89.4243 29.8091 89.4243 27.9211V25.0712C89.4243 23.1832 90.9555 21.6514 92.8071 21.6514H93.4837ZM91.1691 25.0712V27.9211C91.1691 28.8473 91.9169 29.5598 92.8071 29.5598H93.4837C94.4095 29.5598 95.1216 28.8117 95.1216 27.9211V25.0712C95.1216 24.145 94.4095 23.4325 93.4837 23.4325H92.8071C91.9169 23.3969 91.1691 24.145 91.1691 25.0712Z" fill="#5E5E5E"/>
<path id="Vector_10" d="M87.3947 25.0712V31.1629H85.6498V25.0712C85.6498 24.145 84.9377 23.4326 84.0119 23.4326H83.3353C82.4451 23.4326 81.6973 24.1807 81.6973 25.0712V31.1629H79.9525V18.6234H81.6973V22.3995C82.2671 21.9364 82.9792 21.6514 83.7982 21.6514H84.0119C85.8635 21.6514 87.3947 23.1832 87.3947 25.0712Z" fill="#5E5E5E"/>
<path id="Vector_11" d="M78.0653 18.6234V20.369H74.54V31.1272H72.7952V20.4046H69.27V18.659L78.0653 18.6234Z" fill="#5E5E5E"/>
<path id="Vector_12" d="M52.5341 39C54.4614 39 56.0237 37.437 56.0237 35.5089C56.0237 33.5808 54.4614 32.0178 52.5341 32.0178C50.6068 32.0178 49.0445 33.5808 49.0445 35.5089C49.0445 37.437 50.6068 39 52.5341 39Z" fill="#5E5E5E"/>
<path id="Vector_13" d="M55.7745 17.9465H28V19.6921H37.543V38.7862H39.2878V19.6921H41.0326V38.7862H42.7418V19.6921H44.4866V38.7862H46.2315V19.6921H55.7745V17.9465Z" fill="#5E5E5E"/>
<path id="Vector_14" d="M55.7745 14.4911H28V16.2366H55.7745V14.4911Z" fill="#5E5E5E"/>
<path id="Vector_15" d="M55.7745 11H28V12.7455H55.7745V11Z" fill="#5E5E5E"/>
</g>
<path id="_xAE_" d="M170.576 31.341C171.359 31.341 172 30.6997 172 29.916C172 29.1323 171.359 28.4911 170.576 28.4911C169.757 28.4911 169.151 29.1323 169.151 29.916C169.151 30.6997 169.757 31.341 170.576 31.341ZM170.576 31.0916C169.935 31.0916 169.436 30.5572 169.436 29.916C169.436 29.2748 169.935 28.7405 170.576 28.7405C171.217 28.7405 171.715 29.2748 171.715 29.916C171.715 30.5572 171.217 31.0916 170.576 31.0916ZM170.326 30.7354V30.0941H170.504L170.896 30.7354H171.217L170.825 30.0585C171.039 29.9873 171.217 29.8448 171.217 29.5954C171.217 29.4529 171.145 29.3104 171.039 29.2036C170.932 29.1323 170.789 29.0967 170.611 29.0967H170.042V30.6997H170.326V30.7354ZM170.576 29.8448H170.326V29.3461H170.576C170.789 29.3461 170.932 29.4173 170.932 29.5954C170.932 29.7735 170.789 29.8448 170.576 29.8448Z" fill="#5E5E5E"/>
</g>
</g>
</g>
</svg>
